# xmcd
#
# Track frame offsets: 
#        150
#        16925
#        36903
#        56878
#        76489
#        93978
#        111698
#        128329
#        147321
#        167232
#        183886
#        201803
#        221408
#        237429
#        255436
#        275590
#        292110
#        309348
#        327182
#
# Disc length: 4623 seconds
#
# Revision: 0
# Processed by: cddbd v1.5.2PL0 Copyright (c) Steve Scherf et al.
# Submitted via: ExactAudioCopy v0.99pb4
#
DISCID=18120d13
DTITLE=Steph Pockets - Steph Pockets Presents The Early Works
DYEAR=2007
DGENRE=Hip-Hop
TTITLE0=Life Goes On
TTITLE1=Summertime
TTITLE2=What's Up What's Up
TTITLE3=Face In My Head
TTITLE4=Rock-Bottom
TTITLE5=Jowo Ma Lo
TTITLE6=Studio 54
TTITLE7=Spanish Song
TTITLE8=Fly
TTITLE9=Proud and Sing
TTITLE10=Flowers
TTITLE11=Driving
TTITLE12=I Love You
TTITLE13=Like This
TTITLE14=Grandma
TTITLE15=Song Of Love
TTITLE16=Everywhere I Go
TTITLE17=What I Been Through
TTITLE18=Can't Give Up [The Late Night Remix]
EXTD=
EXTT0=
EXTT1=
EXTT2=
EXTT3=
EXTT4=
EXTT5=
EXTT6=
EXTT7=
EXTT8=
EXTT9=
EXTT10=
EXTT11=
EXTT12=
EXTT13=
EXTT14=
EXTT15=
EXTT16=
EXTT17=
EXTT18=
PLAYORDER=
